<?xml version="1.0"?><svg width="640" height="480" xmlns="http://www.w3.org/2000/svg">
 <title>cloud to be labelled</title>
 <metadata id="metadata3228">image/svg+xml</metadata>
 <g>
  <title>Layer 1</title>
  <g id="layer1">
   <g id="g6444">
    <path fill="#ffffff" fill-rule="nonzero" stroke="#000000" stroke-width="2.587" stroke-miterlimit="4" stroke-dashoffset="0" d="m335.51001,64.243599c-54.022003,0 -99.655014,39.269402 -113.853012,92.895409c-5.910995,-3.809006 -12.710999,-6.001007 -19.981003,-6.001007c-22.483002,0 -40.725998,20.794006 -40.725998,46.421997c0,0.261002 -0.003998,0.509003 0,0.768997c-6.735001,-1.572998 -13.79599,-2.46199 -21.104996,-2.46199c-44.5653,0 -80.732403,31.216995 -80.732502,69.658997c0,38.44101 36.167202,69.658997 80.732502,69.658997c17.651001,0 33.959991,-4.93399 47.250992,-13.234009c7.938004,27.071014 30.338013,46.627014 56.746002,46.627014c17.895004,0 33.940994,-8.981018 44.910995,-23.186005c10.643005,6.346008 23.158997,10.002991 36.541016,10.002991c18.208984,0 34.825989,-6.750977 47.296997,-17.850983c16.803986,19.880005 41.514008,32.470001 69.075989,32.470001c33.813019,0 63.365021,-18.96402 79.247009,-47.08902c2.390991,0.400024 4.844971,0.615997 7.335999,0.615997c26.898987,0 48.690979,-24.113983 48.690979,-53.859985c0,-29.746994 -21.791992,-53.910995 -48.690979,-53.910995c-4.814026,0 -9.468018,0.817001 -13.861023,2.256989c-14.493988,-19.475998 -36.165985,-32.977997 -60.930969,-36.265991c-5.06601,-65.792 -55.944,-117.517502 -117.947998,-117.517502l0,0.000099z" id="path5530"/>
    <path fill="#ffffff" fill-rule="nonzero" stroke="#a3ced5" stroke-width="2.587" stroke-miterlimit="4" stroke-dashoffset="0" d="m332.933014,61.3195c-49.378021,0.168301 -97.654007,37.765697 -112.997009,91.459507c-22.334,-12.910004 -52.333008,2.023987 -59.582001,29.186996c-1.188004,4.119003 -1.96701,8.436996 -2.160004,12.772003c-35.040001,-7.034012 -76.480904,6.036987 -95.267601,42.472992c-12.565399,23.770996 -6.458401,56.015991 11.430298,73.96701c29.0093,31.447998 76.507301,34.769989 111.288307,16.106995c11.283997,34.350006 47.893997,53.78299 78.347,41.139008c9.697998,-3.577026 18.533997,-10.663025 25.559998,-18.569c26.118988,14.360992 59.18399,11.80899 82.756989,-7.643005c37.813019,43.286987 106.783997,41.524994 142.33902,-4.360016c4.245972,-3.306 5.458984,-12.973999 11.654968,-10.772003c28.721008,2.272003 55.765991,-27.03299 53.462036,-60.117981c-0.940002,-34.077011 -31.843018,-60.185013 -60.842041,-53.193008c-5.980957,2.824997 -8.271973,-7.25499 -13.184967,-9.798004c-13.906006,-13.924988 -32.365021,-21.513 -49.681,-25.338989c-5.278015,-59.422005 -50.369019,-108.0354 -101.643005,-115.753002c-7.085999,-1.223202 -14.29599,-1.748703 -21.480988,-1.559502l0,0z" id="path6438"/>
   </g>
  </g>
 </g>
</svg>